<svg width="36" height="36" viewBox="0 0 36 36" fill="none" xmlns="http://www.w3.org/2000/svg">
<path d="M32.0236 24.6526H23.9345C23.915 24.733 23.9037 25.5196 23.9037 25.606C23.9037 26.1944 24.3807 26.6715 24.9692 26.6715H26.9135V29.4702H26.0919C25.5034 29.4702 25.0263 29.9473 25.0263 30.5357C25.0263 31.1242 25.5034 31.6012 26.0919 31.6012H26.9135V31.9195C26.9135 32.508 27.3906 32.985 27.979 32.985C28.5675 32.985 29.0446 32.508 29.0446 31.9195V31.6012H29.8662C30.4547 31.6012 30.9317 31.1242 30.9317 30.5357C30.9317 29.9473 30.4547 29.4702 29.8662 29.4702H29.0446V26.6715H30.9889C31.5773 26.6715 32.0544 26.1944 32.0544 25.606C32.0544 25.5195 32.043 24.733 32.0236 24.6526Z" fill="white"/>
<path d="M27.9791 3.01489C24.5842 3.01489 21.8223 5.77684 21.8223 9.17174C21.8223 11.4804 23.0998 13.496 24.9849 14.5497H30.9735C32.8585 13.496 34.136 11.4804 34.136 9.17174C34.136 5.77684 31.374 3.01489 27.9791 3.01489Z" fill="white"/>
<path d="M34.9345 16.6807H21.0236C20.4352 16.6807 19.9581 17.1577 19.9581 17.7462V21.4668C19.9581 22.0492 20.4303 22.5215 21.0128 22.5215H34.9453C35.5278 22.5215 36 22.0492 36 21.4668V17.7462C36 17.1577 35.5229 16.6807 34.9345 16.6807Z" fill="white"/>
<path d="M12.0655 24.6526H3.97629C3.95689 24.733 3.9455 25.5196 3.9455 25.606C3.9455 26.1944 4.42257 26.6715 5.01101 26.6715H6.95536V29.4702H6.13369C5.54525 29.4702 5.06818 29.9473 5.06818 30.5357C5.06818 31.1242 5.54525 31.6012 6.13369 31.6012H6.95536V31.9195C6.95536 32.508 7.43243 32.985 8.02088 32.985C8.60932 32.985 9.08639 32.508 9.08639 31.9195V31.6012H9.90807C10.4965 31.6012 10.9736 31.1242 10.9736 30.5357C10.9736 29.9473 10.4965 29.4702 9.90807 29.4702H9.08646V26.6715H11.0308C11.6193 26.6715 12.0963 26.1944 12.0963 25.606C12.0963 25.5195 12.0849 24.733 12.0655 24.6526Z" fill="white"/>
<path d="M8.02091 3.01489C4.62601 3.01489 1.86407 5.77684 1.86407 9.17174C1.86407 11.4804 3.14157 13.496 5.02665 14.5497H11.0152C12.9002 13.496 14.1778 11.4804 14.1778 9.17174C14.1778 5.77684 11.4158 3.01489 8.02091 3.01489Z" fill="white"/>
<path d="M14.9763 16.6807H1.06552C0.47707 16.6807 0 17.1577 0 17.7462V21.4668C0 22.0492 0.472219 22.5215 1.05469 22.5215H14.9872C15.5696 22.5215 16.0419 22.0492 16.0419 21.4668V17.7462C16.0419 17.1577 15.5648 16.6807 14.9763 16.6807Z" fill="white"/>
</svg>
