<svg width="13" height="13" viewBox="0 0 13 13" fill="none" xmlns="http://www.w3.org/2000/svg">
<path d="M6.60068 1.80219C8.22852 1.80219 8.42129 1.80829 9.06436 1.83761C9.451 1.84234 9.83397 1.91334 10.1966 2.04752C10.4596 2.14894 10.6984 2.3043 10.8977 2.50361C11.0971 2.70292 11.2524 2.94176 11.3538 3.20474C11.488 3.56739 11.559 3.95036 11.5637 4.337C11.5928 4.98006 11.5992 5.17284 11.5992 6.80068C11.5992 8.42852 11.5931 8.62129 11.5637 9.26435C11.559 9.651 11.488 10.034 11.3538 10.3966C11.2524 10.6596 11.0971 10.8984 10.8977 11.0977C10.6984 11.297 10.4596 11.4524 10.1966 11.5538C9.83397 11.688 9.451 11.759 9.06436 11.7637C8.42158 11.7928 8.22881 11.7992 6.60068 11.7992C4.97255 11.7992 4.77978 11.7931 4.137 11.7637C3.75036 11.759 3.36739 11.688 3.00475 11.5538C2.74176 11.4524 2.50292 11.297 2.30362 11.0977C2.10431 10.8984 1.94894 10.6596 1.84752 10.3966C1.71334 10.034 1.64235 9.651 1.63762 9.26435C1.60858 8.62129 1.6022 8.42852 1.6022 6.80068C1.6022 5.17284 1.60829 4.98006 1.63762 4.337C1.64235 3.95036 1.71334 3.56739 1.84752 3.20474C1.94894 2.94176 2.10431 2.70292 2.30362 2.50361C2.50292 2.3043 2.74176 2.14894 3.00475 2.04752C3.36739 1.91334 3.75036 1.84234 4.137 1.83761C4.78007 1.80858 4.97284 1.80219 6.60068 1.80219ZM6.60068 0.703613C4.94584 0.703613 4.73739 0.710581 4.08707 0.740194C3.58105 0.750259 3.0804 0.846069 2.60642 1.02355C2.19982 1.17674 1.83155 1.41681 1.52729 1.727C1.21682 2.03137 0.97655 2.39985 0.823261 2.80671C0.645781 3.28069 0.549971 3.78134 0.539906 4.28735C0.510874 4.9371 0.503906 5.14555 0.503906 6.80039C0.503906 8.45522 0.510874 8.66368 0.540487 9.314C0.550552 9.82002 0.646362 10.3207 0.823842 10.7946C0.97696 11.2014 1.21703 11.5699 1.52729 11.8744C1.83172 12.1846 2.2002 12.4247 2.607 12.5778C3.08098 12.7553 3.58163 12.8511 4.08765 12.8612C4.73797 12.8902 4.94555 12.8977 6.60126 12.8977C8.25697 12.8977 8.46455 12.8908 9.11487 12.8612C9.62089 12.8511 10.1215 12.7553 10.5955 12.5778C11.0004 12.4209 11.3681 12.1812 11.675 11.874C11.982 11.5669 12.2214 11.199 12.3781 10.7941C12.5556 10.3201 12.6514 9.81944 12.6615 9.31342C12.6905 8.66368 12.6975 8.45522 12.6975 6.80039C12.6975 5.14555 12.6905 4.9371 12.6609 4.28677C12.6508 3.78076 12.555 3.28011 12.3775 2.80613C12.2244 2.39932 11.9843 2.03084 11.6741 1.72642C11.3696 1.41616 11.0012 1.17609 10.5944 1.02297C10.1204 0.845488 9.61973 0.749678 9.11371 0.739613C8.46397 0.710581 8.25552 0.703613 6.60068 0.703613Z" fill="white"/>
<path d="M6.60191 3.6709C5.98269 3.6709 5.37737 3.85452 4.86251 4.19854C4.34764 4.54256 3.94636 5.03153 3.70939 5.60362C3.47243 6.1757 3.41042 6.80521 3.53123 7.41253C3.65203 8.01986 3.95022 8.57772 4.38807 9.01557C4.82593 9.45343 5.38379 9.75161 5.99111 9.87242C6.59844 9.99322 7.22794 9.93122 7.80003 9.69425C8.37212 9.45729 8.86109 9.056 9.20511 8.54114C9.54913 8.02627 9.73275 7.42096 9.73275 6.80174C9.73275 5.97139 9.40289 5.17505 8.81575 4.5879C8.2286 4.00075 7.43226 3.6709 6.60191 3.6709ZM6.60191 8.83399C6.19997 8.83399 5.80705 8.71481 5.47285 8.4915C5.13864 8.26819 4.87816 7.95079 4.72435 7.57945C4.57053 7.2081 4.53029 6.79948 4.6087 6.40526C4.68712 6.01104 4.88067 5.64893 5.16489 5.36471C5.4491 5.0805 5.81122 4.88694 6.20544 4.80853C6.59965 4.73011 7.00827 4.77036 7.37962 4.92418C7.75097 5.07799 8.06836 5.33847 8.29167 5.67267C8.51498 6.00688 8.63417 6.39979 8.63417 6.80174C8.63417 7.34073 8.42005 7.85764 8.03893 8.23876C7.65781 8.61988 7.1409 8.83399 6.60191 8.83399Z" fill="white"/>
<path d="M9.85582 4.27817C10.2599 4.27817 10.5874 3.95061 10.5874 3.54655C10.5874 3.1425 10.2599 2.81494 9.85582 2.81494C9.45176 2.81494 9.12421 3.1425 9.12421 3.54655C9.12421 3.95061 9.45176 4.27817 9.85582 4.27817Z" fill="white"/>
</svg>
