<svg width="36" height="36" viewBox="0 0 36 36" fill="none" xmlns="http://www.w3.org/2000/svg">
<g id="sign-out-option 1">
<g id="Group">
<g id="Group_2">
<path id="Vector" d="M14.694 30.4898C14.648 30.3674 14.6321 30.2633 14.6477 30.1791C14.6632 30.0955 14.6098 30.0262 14.4871 29.9728C14.3645 29.9194 14.3033 29.877 14.3033 29.8468C14.3033 29.8162 14.2154 29.7931 14.0392 29.778C13.8631 29.7627 13.7752 29.7549 13.7752 29.7549H13.4769H13.2244H6.6121C5.60192 29.7549 4.73705 29.3955 4.01757 28.6756C3.29825 27.9562 2.93863 27.0916 2.93863 26.0816V9.91817C2.93863 8.90799 3.29817 8.04344 4.01757 7.32404C4.73705 6.60456 5.60192 6.2447 6.6121 6.2447H13.959C14.158 6.2447 14.3145 6.19533 14.4295 6.09561C14.5441 5.99614 14.6205 5.84681 14.659 5.64786C14.6972 5.44891 14.7203 5.26926 14.728 5.10851C14.7356 4.94792 14.7319 4.74495 14.7165 4.50009C14.7013 4.2553 14.6936 4.10227 14.6936 4.04075C14.6936 3.8418 14.6209 3.66996 14.4755 3.52424C14.3301 3.37917 14.158 3.3064 13.959 3.3064H6.6121C4.79084 3.3064 3.23335 3.9531 1.93987 5.24642C0.646703 6.53975 0 8.097 0 9.91841V26.0815C0 27.9027 0.646703 29.4604 1.93987 30.7532C3.23335 32.0472 4.79084 32.6939 6.6121 32.6939H13.9593C14.1583 32.6939 14.3149 32.6439 14.4299 32.5448C14.5445 32.4452 14.6209 32.296 14.6593 32.0968C14.6976 31.8981 14.7206 31.7176 14.7284 31.5575C14.7359 31.3967 14.7322 31.1941 14.7168 30.9493C14.7014 30.7042 14.694 30.5512 14.694 30.4898Z" fill="white"/>
<path id="Vector_2" d="M35.5637 16.967L23.074 4.47695C22.7834 4.18648 22.4389 4.04077 22.0409 4.04077C21.6429 4.04077 21.2984 4.18648 21.0075 4.47695C20.7166 4.76781 20.5713 5.11255 20.5713 5.51029V12.1225H10.2857C9.88746 12.1225 9.5432 12.2683 9.25234 12.5587C8.96147 12.8496 8.81616 13.1941 8.81616 13.5921V22.4085C8.81616 22.8064 8.96147 23.1509 9.25234 23.4416C9.54352 23.7319 9.8877 23.878 10.2857 23.878H20.5714V30.4902C20.5714 30.8879 20.7167 31.2327 21.0076 31.5233C21.2984 31.8142 21.6429 31.9598 22.041 31.9598C22.4389 31.9598 22.7834 31.8142 23.0741 31.5233L35.5637 19.0338C35.8546 18.7427 36 18.3987 36 18.0006C36 17.6027 35.8546 17.2579 35.5637 16.967Z" fill="white"/>
</g>
</g>
</g>
</svg>
