<svg width="21" height="21" viewBox="0 0 21 21" fill="none" xmlns="http://www.w3.org/2000/svg">
<g id="ant-design:star-filled">
<path id="Vector" d="M18.6308 7.34189L13.6173 6.61327L11.3762 2.06975C11.315 1.94535 11.2143 1.84464 11.0899 1.78343C10.7779 1.62941 10.3987 1.75776 10.2428 2.06975L8.0016 6.61327L2.98812 7.34189C2.8499 7.36164 2.72353 7.4268 2.62677 7.52553C2.5098 7.64575 2.44534 7.8075 2.44757 7.97523C2.44979 8.14295 2.5185 8.30293 2.63862 8.42002L6.26594 11.9565L5.40896 16.9502C5.38887 17.0664 5.40172 17.1859 5.44607 17.2951C5.49042 17.4043 5.56449 17.499 5.65987 17.5682C5.75526 17.6375 5.86815 17.6787 5.98574 17.6871C6.10333 17.6954 6.22092 17.6707 6.32517 17.6157L10.8095 15.258L15.2937 17.6157C15.4162 17.6808 15.5583 17.7025 15.6946 17.6789C16.0382 17.6196 16.2692 17.2938 16.21 16.9502L15.353 11.9565L18.9803 8.42002C19.079 8.32326 19.1442 8.19689 19.1639 8.05867C19.2173 7.71312 18.9764 7.39323 18.6308 7.34189Z" fill="#FF6600"/>
</g>
</svg>
