<svg width="11" height="9" viewBox="0 0 11 9" fill="none" xmlns="http://www.w3.org/2000/svg">
<path d="M10.1864 1.0844C9.8093 1.25201 9.41123 1.35677 8.9922 1.41962C9.41123 1.16821 9.74644 0.770135 9.8931 0.288259C9.49503 0.518722 9.05506 0.68633 8.57318 0.791086C8.19606 0.393015 7.65133 0.141602 7.0647 0.141602C5.93334 0.141602 5.01149 1.06345 5.01149 2.19481C5.01149 2.36242 5.03244 2.50908 5.07435 2.65574C3.37731 2.57193 1.84787 1.75484 0.82127 0.497771C0.653661 0.812037 0.548905 1.14726 0.548905 1.52438C0.548905 2.23671 0.905074 2.86525 1.47075 3.24237C1.13554 3.22142 0.82127 3.13761 0.527954 2.99095V3.0119C0.527954 4.01756 1.24029 4.8556 2.18309 5.04416C2.01548 5.08606 1.82692 5.10702 1.63836 5.10702C1.51266 5.10702 1.366 5.08606 1.24029 5.06511C1.51266 5.88221 2.2669 6.48979 3.16779 6.48979C2.45546 7.03452 1.57551 7.36974 0.611758 7.36974C0.444149 7.36974 0.276541 7.36974 0.129883 7.34879C1.05173 7.93542 2.12024 8.27063 3.2935 8.27063C7.08565 8.27063 9.15981 5.12797 9.15981 2.40432C9.15981 2.32052 9.15981 2.21576 9.15981 2.13196C9.55788 1.85959 9.91405 1.50342 10.1864 1.0844Z" fill="white"/>
</svg>
